<svg xmlns="http://www.w3.org/2000/svg" xmlns:xlink="http://www.w3.org/1999/xlink" width="1024" zoomAndPan="magnify" viewBox="0 0 768 767.999994" height="1024" preserveAspectRatio="xMidYMid meet" version="1.0"><defs><clipPath id="5384a9bc6b"><path d="M 17.617188 15.953125 L 750.367188 15.953125 L 750.367188 750 L 17.617188 750 Z M 17.617188 15.953125 " clip-rule="nonzero"/></clipPath><clipPath id="4e2a442c4e"><path d="M 219 152 L 555 152 L 555 751.703125 L 219 751.703125 Z M 219 152 " clip-rule="nonzero"/></clipPath></defs><g clip-path="url(#5384a9bc6b)"><path fill="#0866ff" d="M 751.804688 383.894531 C 751.804688 180.671875 587.085938 15.953125 383.894531 15.953125 C 180.707031 15.953125 15.953125 180.671875 15.953125 383.894531 C 15.953125 556.441406 134.738281 701.246094 294.996094 741.003906 L 294.996094 496.339844 L 219.109375 496.339844 L 219.109375 383.894531 L 294.996094 383.894531 L 294.996094 335.453125 C 294.996094 210.226562 351.664062 152.175781 474.609375 152.175781 C 497.921875 152.175781 538.144531 156.730469 554.589844 161.320312 L 554.589844 263.230469 C 545.90625 262.304688 530.8125 261.84375 512.089844 261.84375 C 451.757812 261.84375 428.441406 284.695312 428.441406 344.101562 L 428.441406 383.863281 L 548.613281 383.863281 L 527.972656 496.304688 L 428.441406 496.304688 L 428.441406 749.097656 C 610.628906 727.101562 751.804688 571.960938 751.804688 383.863281 Z M 751.804688 383.894531 " fill-opacity="1" fill-rule="nonzero"/></g><g clip-path="url(#4e2a442c4e)"><path fill="#ffffff" d="M 528.007812 496.304688 L 548.644531 383.863281 L 428.476562 383.863281 L 428.476562 344.101562 C 428.476562 284.695312 451.789062 261.84375 512.121094 261.84375 C 530.847656 261.84375 545.9375 262.304688 554.625 263.230469 L 554.625 161.320312 C 538.179688 156.765625 497.957031 152.175781 474.640625 152.175781 C 351.699219 152.175781 295.03125 210.226562 295.03125 335.453125 L 295.03125 383.894531 L 219.144531 383.894531 L 219.144531 496.339844 L 295.03125 496.339844 L 295.03125 741.003906 C 323.496094 748.070312 353.25 751.835938 383.929688 751.835938 C 399.019531 751.835938 413.878906 750.914062 428.507812 749.128906 L 428.507812 496.339844 L 528.039062 496.339844 Z M 528.007812 496.304688 " fill-opacity="1" fill-rule="nonzero"/></g></svg>