<svg xmlns="http://www.w3.org/2000/svg" xmlns:xlink="http://www.w3.org/1999/xlink" width="1024" zoomAndPan="magnify" viewBox="0 0 768 767.999994" height="1024" preserveAspectRatio="xMidYMid meet" version="1.0"><defs><clipPath id="cbc0805992"><path d="M 27.589844 27.589844 L 740.089844 27.589844 L 740.089844 740.089844 L 27.589844 740.089844 Z M 27.589844 27.589844 " clip-rule="nonzero"/></clipPath></defs><g clip-path="url(#cbc0805992)"><path fill="#000000" d="M 740.21875 383.90625 C 740.21875 389.734375 740.074219 395.5625 739.789062 401.386719 C 739.503906 407.210938 739.074219 413.027344 738.503906 418.828125 C 737.929688 424.632812 737.21875 430.417969 736.363281 436.1875 C 735.503906 441.953125 734.507812 447.699219 733.371094 453.417969 C 732.234375 459.136719 730.957031 464.824219 729.539062 470.480469 C 728.121094 476.136719 726.566406 481.757812 724.875 487.335938 C 723.183594 492.917969 721.355469 498.453125 719.390625 503.941406 C 717.425781 509.433594 715.328125 514.871094 713.09375 520.257812 C 710.863281 525.648438 708.5 530.976562 706.007812 536.25 C 703.515625 541.519531 700.894531 546.726562 698.144531 551.871094 C 695.394531 557.011719 692.523438 562.085938 689.523438 567.085938 C 686.527344 572.089844 683.40625 577.011719 680.167969 581.863281 C 676.929688 586.710938 673.570312 591.476562 670.097656 596.160156 C 666.625 600.84375 663.039062 605.441406 659.339844 609.949219 C 655.640625 614.453125 651.832031 618.871094 647.914062 623.191406 C 644 627.511719 639.980469 631.734375 635.855469 635.855469 C 631.734375 639.980469 627.511719 644 623.191406 647.914062 C 618.871094 651.832031 614.453125 655.640625 609.949219 659.339844 C 605.441406 663.039062 600.84375 666.625 596.160156 670.097656 C 591.476562 673.570312 586.710938 676.929688 581.863281 680.167969 C 577.011719 683.40625 572.089844 686.527344 567.085938 689.523438 C 562.085938 692.523438 557.011719 695.394531 551.871094 698.144531 C 546.726562 700.894531 541.519531 703.515625 536.25 706.007812 C 530.976562 708.5 525.648438 710.863281 520.257812 713.09375 C 514.871094 715.328125 509.433594 717.425781 503.941406 719.390625 C 498.453125 721.355469 492.917969 723.183594 487.335938 724.875 C 481.757812 726.566406 476.136719 728.121094 470.480469 729.539062 C 464.824219 730.957031 459.136719 732.234375 453.417969 733.371094 C 447.699219 734.507812 441.953125 735.503906 436.1875 736.359375 C 430.417969 737.21875 424.632812 737.929688 418.828125 738.503906 C 413.027344 739.074219 407.210938 739.503906 401.386719 739.789062 C 395.5625 740.074219 389.734375 740.21875 383.90625 740.21875 C 378.074219 740.21875 372.246094 740.074219 366.421875 739.789062 C 360.597656 739.503906 354.78125 739.074219 348.980469 738.503906 C 343.175781 737.929688 337.390625 737.21875 331.621094 736.363281 C 325.855469 735.503906 320.109375 734.507812 314.390625 733.371094 C 308.671875 732.234375 302.984375 730.957031 297.328125 729.539062 C 291.671875 728.121094 286.050781 726.566406 280.472656 724.875 C 274.890625 723.183594 269.355469 721.355469 263.867188 719.390625 C 258.375 717.425781 252.9375 715.328125 247.550781 713.09375 C 242.160156 710.863281 236.832031 708.5 231.5625 706.007812 C 226.289062 703.515625 221.082031 700.894531 215.941406 698.144531 C 210.796875 695.394531 205.726562 692.523438 200.722656 689.523438 C 195.722656 686.527344 190.796875 683.40625 185.949219 680.167969 C 181.097656 676.929688 176.332031 673.570312 171.648438 670.097656 C 166.964844 666.625 162.371094 663.039062 157.863281 659.339844 C 153.355469 655.640625 148.941406 651.832031 144.621094 647.914062 C 140.296875 644 136.078125 639.980469 131.953125 635.855469 C 127.828125 631.734375 123.808594 627.511719 119.894531 623.191406 C 115.976562 618.871094 112.171875 614.453125 108.472656 609.949219 C 104.769531 605.441406 101.183594 600.84375 97.710938 596.160156 C 94.238281 591.476562 90.878906 586.710938 87.640625 581.863281 C 84.402344 577.011719 81.28125 572.089844 78.285156 567.085938 C 75.285156 562.085938 72.414062 557.011719 69.664062 551.871094 C 66.914062 546.726562 64.292969 541.519531 61.800781 536.25 C 59.308594 530.976562 56.945312 525.648438 54.714844 520.257812 C 52.484375 514.871094 50.382812 509.433594 48.421875 503.941406 C 46.457031 498.453125 44.625 492.917969 42.933594 487.335938 C 41.242188 481.757812 39.6875 476.136719 38.269531 470.480469 C 36.851562 464.824219 35.574219 459.136719 34.4375 453.417969 C 33.300781 447.699219 32.304688 441.953125 31.449219 436.1875 C 30.59375 430.417969 29.878906 424.632812 29.308594 418.828125 C 28.734375 413.027344 28.308594 407.210938 28.019531 401.386719 C 27.734375 395.5625 27.589844 389.734375 27.589844 383.90625 C 27.589844 378.074219 27.734375 372.246094 28.019531 366.421875 C 28.308594 360.597656 28.734375 354.78125 29.308594 348.980469 C 29.878906 343.175781 30.59375 337.390625 31.449219 331.621094 C 32.304688 325.855469 33.300781 320.109375 34.4375 314.390625 C 35.574219 308.671875 36.851562 302.984375 38.269531 297.328125 C 39.6875 291.671875 41.242188 286.050781 42.933594 280.472656 C 44.625 274.890625 46.457031 269.355469 48.421875 263.867188 C 50.382812 258.375 52.484375 252.9375 54.714844 247.550781 C 56.945312 242.160156 59.308594 236.832031 61.800781 231.5625 C 64.292969 226.289062 66.914062 221.082031 69.664062 215.941406 C 72.414062 210.796875 75.285156 205.726562 78.285156 200.722656 C 81.28125 195.722656 84.402344 190.796875 87.640625 185.949219 C 90.878906 181.097656 94.238281 176.332031 97.710938 171.648438 C 101.183594 166.964844 104.769531 162.371094 108.472656 157.863281 C 112.171875 153.355469 115.976562 148.941406 119.894531 144.621094 C 123.808594 140.296875 127.828125 136.078125 131.953125 131.953125 C 136.078125 127.828125 140.296875 123.808594 144.621094 119.894531 C 148.941406 115.976562 153.355469 112.171875 157.863281 108.472656 C 162.371094 104.769531 166.964844 101.183594 171.648438 97.710938 C 176.332031 94.238281 181.097656 90.878906 185.949219 87.640625 C 190.796875 84.402344 195.722656 81.28125 200.722656 78.285156 C 205.726562 75.285156 210.796875 72.414062 215.941406 69.664062 C 221.082031 66.914062 226.289062 64.292969 231.5625 61.800781 C 236.832031 59.308594 242.160156 56.945312 247.550781 54.714844 C 252.9375 52.484375 258.375 50.382812 263.867188 48.421875 C 269.355469 46.457031 274.890625 44.625 280.472656 42.933594 C 286.050781 41.242188 291.671875 39.6875 297.328125 38.269531 C 302.984375 36.851562 308.671875 35.574219 314.390625 34.4375 C 320.109375 33.300781 325.855469 32.304688 331.621094 31.449219 C 337.390625 30.59375 343.175781 29.878906 348.980469 29.308594 C 354.78125 28.734375 360.597656 28.308594 366.421875 28.019531 C 372.246094 27.734375 378.074219 27.589844 383.90625 27.589844 C 389.734375 27.589844 395.5625 27.734375 401.386719 28.019531 C 407.210938 28.308594 413.027344 28.734375 418.828125 29.308594 C 424.632812 29.878906 430.417969 30.59375 436.1875 31.449219 C 441.953125 32.304688 447.699219 33.300781 453.417969 34.4375 C 459.136719 35.574219 464.824219 36.851562 470.480469 38.269531 C 476.136719 39.6875 481.757812 41.242188 487.335938 42.933594 C 492.917969 44.625 498.453125 46.457031 503.941406 48.421875 C 509.433594 50.382812 514.871094 52.484375 520.257812 54.714844 C 525.648438 56.945312 530.976562 59.308594 536.25 61.800781 C 541.519531 64.292969 546.726562 66.914062 551.871094 69.664062 C 557.011719 72.414062 562.085938 75.285156 567.085938 78.285156 C 572.085938 81.28125 577.011719 84.402344 581.863281 87.640625 C 586.710938 90.878906 591.476562 94.238281 596.160156 97.710938 C 600.84375 101.183594 605.441406 104.769531 609.949219 108.472656 C 614.453125 112.171875 618.871094 115.976562 623.191406 119.894531 C 627.511719 123.808594 631.734375 127.828125 635.855469 131.953125 C 639.980469 136.078125 644 140.296875 647.914062 144.621094 C 651.832031 148.941406 655.640625 153.355469 659.339844 157.863281 C 663.039062 162.371094 666.625 166.964844 670.097656 171.648438 C 673.570312 176.332031 676.929688 181.097656 680.167969 185.949219 C 683.40625 190.796875 686.527344 195.722656 689.523438 200.722656 C 692.523438 205.726562 695.394531 210.796875 698.144531 215.941406 C 700.894531 221.082031 703.515625 226.289062 706.007812 231.5625 C 708.5 236.832031 710.863281 242.160156 713.09375 247.550781 C 715.328125 252.9375 717.425781 258.375 719.390625 263.867188 C 721.355469 269.355469 723.183594 274.890625 724.875 280.472656 C 726.566406 286.050781 728.121094 291.671875 729.539062 297.328125 C 730.957031 302.984375 732.234375 308.671875 733.371094 314.390625 C 734.507812 320.109375 735.503906 325.855469 736.359375 331.621094 C 737.21875 337.390625 737.929688 343.175781 738.503906 348.980469 C 739.074219 354.78125 739.503906 360.597656 739.789062 366.421875 C 740.074219 372.246094 740.21875 378.074219 740.21875 383.90625 Z M 740.21875 383.90625 " fill-opacity="1" fill-rule="nonzero"/></g><path fill="#25f4ee" d="M 336.605469 332.964844 L 336.605469 313.636719 C 330.117188 312.75 323.539062 312.210938 316.832031 312.210938 C 235.929688 312.210938 170.121094 378.019531 170.121094 458.917969 C 170.121094 508.558594 194.925781 552.476562 232.765625 579.050781 C 208.34375 552.824219 193.851562 517.703125 193.851562 479.136719 C 193.851562 399.40625 257.320312 334.800781 336.605469 332.964844 Z M 336.605469 332.964844 " fill-opacity="1" fill-rule="nonzero"/><path fill="#25f4ee" d="M 340.054688 546.558594 C 376.152344 546.558594 406.019531 517.417969 407.347656 481.667969 L 407.664062 162.65625 L 465.5 162.65625 C 465.5 162.65625 465.40625 162.214844 465.40625 162.214844 C 464.203125 155.664062 463.539062 148.894531 463.539062 141.996094 L 383.839844 141.996094 L 383.714844 461.449219 C 382.386719 497.234375 352.929688 525.929688 316.832031 525.929688 C 305.597656 525.929688 295.0625 523.113281 285.761719 518.242188 C 297.941406 535.105469 317.71875 546.589844 340.085938 546.589844 Z M 340.054688 546.558594 " fill-opacity="1" fill-rule="nonzero"/><path fill="#25f4ee" d="M 574.464844 271.554688 L 574.464844 252.828125 C 552.191406 252.828125 531.46875 246.214844 514.066406 234.855469 C 529.535156 252.636719 550.578125 266.429688 574.464844 271.523438 Z M 574.464844 271.554688 " fill-opacity="1" fill-rule="nonzero"/><path fill="#fe2c55" d="M 514.066406 234.886719 C 497.105469 215.398438 486.792969 189.992188 486.792969 162.183594 L 465.089844 162.183594 C 470.722656 192.554688 489.101562 218.625 514.066406 234.886719 Z M 514.066406 234.886719 " fill-opacity="1" fill-rule="nonzero"/><path fill="#fe2c55" d="M 316.832031 391.277344 C 279.878906 391.277344 249.378906 421.933594 249.378906 458.886719 C 249.378906 484.609375 264.40625 506.980469 285.730469 518.210938 C 277.789062 507.199219 273.042969 493.722656 273.042969 479.136719 C 273.042969 442.183594 303.101562 412.125 340.054688 412.125 C 346.949219 412.125 353.5625 413.265625 359.828125 415.226562 L 359.828125 333.851562 C 353.339844 332.964844 346.761719 332.429688 340.054688 332.429688 C 338.882812 332.429688 337.742188 332.492188 336.605469 332.523438 L 336.289062 332.523438 C 336.289062 332.523438 336.066406 394.125 336.066406 394.125 C 329.800781 392.164062 323.726562 391.308594 316.832031 391.308594 Z M 316.832031 391.277344 " fill-opacity="1" fill-rule="nonzero"/><path fill="#fe2c55" d="M 574.464844 270.605469 L 574.082031 270.542969 L 574.082031 332.082031 C 532.730469 332.082031 494.324219 318.476562 463.0625 296.042969 L 463.0625 458.886719 C 463.0625 539.789062 397.730469 605.183594 316.832031 605.183594 C 285.570312 605.183594 256.589844 595.726562 232.734375 578.988281 C 259.535156 607.746094 297.722656 625.8125 340.054688 625.8125 C 420.953125 625.8125 486.761719 560.003906 486.761719 479.105469 L 486.761719 317.117188 C 518.019531 339.546875 556.335938 352.773438 597.65625 352.773438 L 597.65625 273.074219 C 589.683594 273.074219 581.929688 272.222656 574.433594 270.605469 Z M 574.464844 270.605469 " fill-opacity="1" fill-rule="nonzero"/><path fill="#ffffff" d="M 463.539062 458.886719 L 463.539062 296.898438 C 494.796875 319.332031 533.113281 332.554688 574.433594 332.554688 L 574.433594 270.605469 C 550.542969 265.480469 529.535156 252.667969 514.035156 234.886719 C 489.070312 218.59375 471.039062 192.554688 465.40625 162.183594 L 407.03125 162.183594 L 406.90625 481.636719 C 405.578125 517.417969 376.121094 546.117188 340.023438 546.117188 C 317.652344 546.117188 297.878906 535.074219 285.699219 518.179688 C 264.375 506.945312 249.789062 484.609375 249.789062 458.855469 C 249.789062 421.902344 279.84375 391.847656 316.800781 391.847656 C 323.695312 391.847656 330.308594 392.984375 336.574219 394.945312 L 336.574219 332.460938 C 257.253906 334.328125 193.3125 399.34375 193.3125 479.105469 C 193.3125 517.671875 208.3125 552.792969 232.703125 579.019531 C 256.527344 595.757812 285.507812 605.597656 316.800781 605.597656 C 397.699219 605.597656 463.507812 539.789062 463.507812 458.886719 Z M 463.539062 458.886719 " fill-opacity="1" fill-rule="nonzero"/></svg>